<?xml version="1.0" encoding="UTF-8" standalone="no"?>
<!DOCTYPE svg PUBLIC "-//W3C//DTD SVG 1.1//EN"
 "http://www.w3.org/Graphics/SVG/1.1/DTD/svg11.dtd">
<!-- Generated by graphviz version 2.47.3 (20210619.1520)
 -->
<!-- Title: dependencies Pages: 1 -->
<svg width="512pt" height="174pt"
 viewBox="0.00 0.00 512.00 173.80" xmlns="http://www.w3.org/2000/svg" xmlns:xlink="http://www.w3.org/1999/xlink">
<g id="graph0" class="graph" transform="scale(1 1) rotate(0) translate(4 169.8)">
<title>dependencies</title>
<polygon fill="white" stroke="transparent" points="-4,4 -4,-169.8 508,-169.8 508,4 -4,4"/>
<text text-anchor="middle" x="252" y="-8.2" font-family="sans-serif" font-size="14.00">dependencies</text>
<g id="clust1" class="cluster">
<title>cluster_OuthersModule</title>
<polygon fill="none" stroke="black" stroke-dasharray="1,5" points="8,-32.8 8,-157.8 496,-157.8 496,-32.8 8,-32.8"/>
</g>
<g id="clust2" class="cluster">
<title>cluster_OuthersModule_declarations</title>
<polygon fill="none" stroke="black" points="346,-40.8 346,-92.8 488,-92.8 488,-40.8 346,-40.8"/>
</g>
<g id="clust4" class="cluster">
<title>cluster_OuthersModule_imports</title>
<polygon fill="none" stroke="black" points="174,-40.8 174,-92.8 338,-92.8 338,-40.8 174,-40.8"/>
</g>
<g id="clust7" class="cluster">
<title>cluster_OuthersModule_providers</title>
<polygon fill="none" stroke="black" points="16,-40.8 16,-92.8 166,-92.8 166,-40.8 16,-40.8"/>
</g>
<!-- OuthersComponent -->
<g id="node1" class="node">
<title>OuthersComponent</title>
<polygon fill="#ffffb3" stroke="black" points="479.65,-84.8 354.35,-84.8 354.35,-48.8 479.65,-48.8 479.65,-84.8"/>
<text text-anchor="middle" x="417" y="-62.6" font-family="Times,serif" font-size="14.00">OuthersComponent</text>
</g>
<!-- OuthersModule -->
<g id="node2" class="node">
<title>OuthersModule</title>
<polygon fill="#8dd3c7" stroke="black" points="307.87,-149.8 304.87,-153.8 283.87,-153.8 280.87,-149.8 204.13,-149.8 204.13,-113.8 307.87,-113.8 307.87,-149.8"/>
<text text-anchor="middle" x="256" y="-127.6" font-family="Times,serif" font-size="14.00">OuthersModule</text>
</g>
<!-- OuthersComponent&#45;&gt;OuthersModule -->
<g id="edge1" class="edge">
<title>OuthersComponent&#45;&gt;OuthersModule</title>
<path fill="none" stroke="black" d="M417,-84.91C417,-104.14 417,-131.8 417,-131.8 417,-131.8 318.27,-131.8 318.27,-131.8"/>
<polygon fill="black" stroke="black" points="318.27,-128.3 308.27,-131.8 318.27,-135.3 318.27,-128.3"/>
</g>
<!-- OuthersRoutingModule -->
<g id="node3" class="node">
<title>OuthersRoutingModule</title>
<polygon fill="#8dd3c7" stroke="black" points="330.48,-84.8 327.48,-88.8 306.48,-88.8 303.48,-84.8 181.52,-84.8 181.52,-48.8 330.48,-48.8 330.48,-84.8"/>
<text text-anchor="middle" x="256" y="-62.6" font-family="Times,serif" font-size="14.00">OuthersRoutingModule</text>
</g>
<!-- OuthersRoutingModule&#45;&gt;OuthersModule -->
<g id="edge2" class="edge">
<title>OuthersRoutingModule&#45;&gt;OuthersModule</title>
<path fill="none" stroke="black" d="M256,-84.91C256,-84.91 256,-103.79 256,-103.79"/>
<polygon fill="black" stroke="black" points="252.5,-103.79 256,-113.79 259.5,-103.79 252.5,-103.79"/>
</g>
<!-- OutherService -->
<g id="node4" class="node">
<title>OutherService</title>
<ellipse fill="#fdb462" stroke="black" cx="91" cy="-66.8" rx="66.61" ry="18"/>
<text text-anchor="middle" x="91" y="-62.6" font-family="Times,serif" font-size="14.00">OutherService</text>
</g>
<!-- OutherService&#45;&gt;OuthersModule -->
<g id="edge3" class="edge">
<title>OutherService&#45;&gt;OuthersModule</title>
<path fill="none" stroke="black" d="M91,-84.91C91,-104.14 91,-131.8 91,-131.8 91,-131.8 193.79,-131.8 193.79,-131.8"/>
<polygon fill="black" stroke="black" points="193.79,-135.3 203.79,-131.8 193.79,-128.3 193.79,-135.3"/>
</g>
</g>
</svg>
