<?xml version="1.0" encoding="UTF-8" standalone="no"?>
<!DOCTYPE svg PUBLIC "-//W3C//DTD SVG 1.1//EN"
 "http://www.w3.org/Graphics/SVG/1.1/DTD/svg11.dtd">
<!-- Generated by graphviz version 2.47.3 (20210619.1520)
 -->
<!-- Title: dependencies Pages: 1 -->
<svg width="1644pt" height="247pt"
 viewBox="0.00 0.00 1644.00 246.80" xmlns="http://www.w3.org/2000/svg" xmlns:xlink="http://www.w3.org/1999/xlink">
<g id="graph0" class="graph" transform="scale(1 1) rotate(0) translate(4 242.8)">
<title>dependencies</title>
<polygon fill="white" stroke="transparent" points="-4,4 -4,-242.8 1640,-242.8 1640,4 -4,4"/>
<text text-anchor="middle" x="818" y="-8.2" font-family="sans-serif" font-size="14.00">dependencies</text>
<g id="clust1" class="cluster">
<title>cluster_HomeModule</title>
<polygon fill="none" stroke="black" stroke-dasharray="1,5" points="8,-32.8 8,-230.8 1628,-230.8 1628,-32.8 8,-32.8"/>
</g>
<g id="clust11" class="cluster">
<title>cluster_HomeModule_exports</title>
<polygon fill="none" stroke="black" points="754,-170.8 754,-222.8 890,-222.8 890,-170.8 754,-170.8"/>
</g>
<g id="clust10" class="cluster">
<title>cluster_HomeModule_imports</title>
<polygon fill="none" stroke="black" points="1466,-40.8 1466,-92.8 1620,-92.8 1620,-40.8 1466,-40.8"/>
</g>
<g id="clust13" class="cluster">
<title>cluster_HomeModule_providers</title>
<polygon fill="none" stroke="black" points="1142,-40.8 1142,-92.8 1458,-92.8 1458,-40.8 1142,-40.8"/>
</g>
<g id="clust2" class="cluster">
<title>cluster_HomeModule_declarations</title>
<polygon fill="none" stroke="black" points="16,-40.8 16,-92.8 1134,-92.8 1134,-40.8 16,-40.8"/>
</g>
<!-- BooksallComponent -->
<g id="node1" class="node">
<title>BooksallComponent</title>
<polygon fill="#ffffb3" stroke="black" points="1125.61,-84.8 994.39,-84.8 994.39,-48.8 1125.61,-48.8 1125.61,-84.8"/>
<text text-anchor="middle" x="1060" y="-62.6" font-family="Times,serif" font-size="14.00">BooksallComponent</text>
</g>
<!-- HomeModule -->
<g id="node8" class="node">
<title>HomeModule</title>
<polygon fill="#8dd3c7" stroke="black" points="868.76,-149.8 865.76,-153.8 844.76,-153.8 841.76,-149.8 775.24,-149.8 775.24,-113.8 868.76,-113.8 868.76,-149.8"/>
<text text-anchor="middle" x="822" y="-127.6" font-family="Times,serif" font-size="14.00">HomeModule</text>
</g>
<!-- BooksallComponent&#45;&gt;HomeModule -->
<g id="edge1" class="edge">
<title>BooksallComponent&#45;&gt;HomeModule</title>
<path fill="none" stroke="black" d="M1060,-84.81C1060,-100.85 1060,-121.8 1060,-121.8 1060,-121.8 879.02,-121.8 879.02,-121.8"/>
<polygon fill="black" stroke="black" points="879.02,-118.3 869.02,-121.8 879.02,-125.3 879.02,-118.3"/>
</g>
<!-- DetailBookComponent -->
<g id="node2" class="node">
<title>DetailBookComponent</title>
<polygon fill="#ffffb3" stroke="black" points="976.88,-84.8 831.12,-84.8 831.12,-48.8 976.88,-48.8 976.88,-84.8"/>
<text text-anchor="middle" x="904" y="-62.6" font-family="Times,serif" font-size="14.00">DetailBookComponent</text>
</g>
<!-- DetailBookComponent&#45;&gt;HomeModule -->
<g id="edge2" class="edge">
<title>DetailBookComponent&#45;&gt;HomeModule</title>
<path fill="none" stroke="black" d="M849.97,-84.91C849.97,-84.91 849.97,-103.79 849.97,-103.79"/>
<polygon fill="black" stroke="black" points="846.47,-103.79 849.97,-113.79 853.47,-103.79 846.47,-103.79"/>
</g>
<!-- DetailChildComponent -->
<g id="node3" class="node">
<title>DetailChildComponent</title>
<polygon fill="#ffffb3" stroke="black" points="813.16,-84.8 666.84,-84.8 666.84,-48.8 813.16,-48.8 813.16,-84.8"/>
<text text-anchor="middle" x="740" y="-62.6" font-family="Times,serif" font-size="14.00">DetailChildComponent</text>
</g>
<!-- DetailChildComponent&#45;&gt;HomeModule -->
<g id="edge3" class="edge">
<title>DetailChildComponent&#45;&gt;HomeModule</title>
<path fill="none" stroke="black" d="M794.22,-84.91C794.22,-84.91 794.22,-103.79 794.22,-103.79"/>
<polygon fill="black" stroke="black" points="790.72,-103.79 794.22,-113.79 797.72,-103.79 790.72,-103.79"/>
</g>
<!-- HomeComponent -->
<g id="node4" class="node">
<title>HomeComponent</title>
<polygon fill="#ffffb3" stroke="black" points="648.55,-84.8 533.45,-84.8 533.45,-48.8 648.55,-48.8 648.55,-84.8"/>
<text text-anchor="middle" x="591" y="-62.6" font-family="Times,serif" font-size="14.00">HomeComponent</text>
</g>
<!-- HomeComponent&#45;&gt;HomeModule -->
<g id="edge4" class="edge">
<title>HomeComponent&#45;&gt;HomeModule</title>
<path fill="none" stroke="black" d="M591,-84.81C591,-100.85 591,-121.8 591,-121.8 591,-121.8 764.98,-121.8 764.98,-121.8"/>
<polygon fill="black" stroke="black" points="764.98,-125.3 774.98,-121.8 764.98,-118.3 764.98,-125.3"/>
</g>
<!-- LibrarianComponent -->
<g id="node5" class="node">
<title>LibrarianComponent</title>
<polygon fill="#ffffb3" stroke="black" points="515.92,-84.8 382.08,-84.8 382.08,-48.8 515.92,-48.8 515.92,-84.8"/>
<text text-anchor="middle" x="449" y="-62.6" font-family="Times,serif" font-size="14.00">LibrarianComponent</text>
</g>
<!-- LibrarianComponent&#45;&gt;HomeModule -->
<g id="edge5" class="edge">
<title>LibrarianComponent&#45;&gt;HomeModule</title>
<path fill="none" stroke="black" d="M449,-85.07C449,-103.36 449,-128.8 449,-128.8 449,-128.8 765.14,-128.8 765.14,-128.8"/>
<polygon fill="black" stroke="black" points="765.14,-132.3 775.14,-128.8 765.14,-125.3 765.14,-132.3"/>
</g>
<!-- LibrarianLoginComponent -->
<g id="node6" class="node">
<title>LibrarianLoginComponent</title>
<polygon fill="#ffffb3" stroke="black" points="364.36,-84.8 197.64,-84.8 197.64,-48.8 364.36,-48.8 364.36,-84.8"/>
<text text-anchor="middle" x="281" y="-62.6" font-family="Times,serif" font-size="14.00">LibrarianLoginComponent</text>
</g>
<!-- LibrarianLoginComponent&#45;&gt;HomeModule -->
<g id="edge6" class="edge">
<title>LibrarianLoginComponent&#45;&gt;HomeModule</title>
<path fill="none" stroke="black" d="M281,-84.93C281,-105.37 281,-135.8 281,-135.8 281,-135.8 764.94,-135.8 764.94,-135.8"/>
<polygon fill="black" stroke="black" points="764.94,-139.3 774.94,-135.8 764.94,-132.3 764.94,-139.3"/>
</g>
<!-- OutherBooksComponent -->
<g id="node7" class="node">
<title>OutherBooksComponent</title>
<polygon fill="#ffffb3" stroke="black" points="179.99,-84.8 24.01,-84.8 24.01,-48.8 179.99,-48.8 179.99,-84.8"/>
<text text-anchor="middle" x="102" y="-62.6" font-family="Times,serif" font-size="14.00">OutherBooksComponent</text>
</g>
<!-- OutherBooksComponent&#45;&gt;HomeModule -->
<g id="edge7" class="edge">
<title>OutherBooksComponent&#45;&gt;HomeModule</title>
<path fill="none" stroke="black" d="M102,-84.81C102,-107.29 102,-142.8 102,-142.8 102,-142.8 765.04,-142.8 765.04,-142.8"/>
<polygon fill="black" stroke="black" points="765.04,-146.3 775.04,-142.8 765.04,-139.3 765.04,-146.3"/>
</g>
<!-- HomeComponent  -->
<g id="node10" class="node">
<title>HomeComponent </title>
<polygon fill="#fb8072" stroke="black" points="881.54,-214.8 762.46,-214.8 762.46,-178.8 881.54,-178.8 881.54,-214.8"/>
<text text-anchor="middle" x="822" y="-192.6" font-family="Times,serif" font-size="14.00">HomeComponent </text>
</g>
<!-- HomeModule&#45;&gt;HomeComponent  -->
<g id="edge9" class="edge">
<title>HomeModule&#45;&gt;HomeComponent </title>
<path fill="none" stroke="black" stroke-dasharray="5,2" d="M822,-149.91C822,-149.91 822,-168.79 822,-168.79"/>
<polygon fill="black" stroke="black" points="818.5,-168.79 822,-178.79 825.5,-168.79 818.5,-168.79"/>
</g>
<!-- HomeRoutingModule -->
<g id="node9" class="node">
<title>HomeRoutingModule</title>
<polygon fill="#8dd3c7" stroke="black" points="1612.38,-84.8 1609.38,-88.8 1588.38,-88.8 1585.38,-84.8 1473.62,-84.8 1473.62,-48.8 1612.38,-48.8 1612.38,-84.8"/>
<text text-anchor="middle" x="1543" y="-62.6" font-family="Times,serif" font-size="14.00">HomeRoutingModule</text>
</g>
<!-- HomeRoutingModule&#45;&gt;HomeModule -->
<g id="edge8" class="edge">
<title>HomeRoutingModule&#45;&gt;HomeModule</title>
<path fill="none" stroke="black" d="M1543,-84.81C1543,-107.29 1543,-142.8 1543,-142.8 1543,-142.8 879.03,-142.8 879.03,-142.8"/>
<polygon fill="black" stroke="black" points="879.03,-139.3 869.03,-142.8 879.03,-146.3 879.03,-139.3"/>
</g>
<!-- BoksgetService -->
<g id="node11" class="node">
<title>BoksgetService</title>
<ellipse fill="#fdb462" stroke="black" cx="1378" cy="-66.8" rx="71.79" ry="18"/>
<text text-anchor="middle" x="1378" y="-62.6" font-family="Times,serif" font-size="14.00">BoksgetService</text>
</g>
<!-- BoksgetService&#45;&gt;HomeModule -->
<g id="edge10" class="edge">
<title>BoksgetService&#45;&gt;HomeModule</title>
<path fill="none" stroke="black" d="M1378,-84.93C1378,-105.37 1378,-135.8 1378,-135.8 1378,-135.8 878.93,-135.8 878.93,-135.8"/>
<polygon fill="black" stroke="black" points="878.93,-132.3 868.93,-135.8 878.93,-139.3 878.93,-132.3"/>
</g>
<!-- LibraryService -->
<g id="node12" class="node">
<title>LibraryService</title>
<ellipse fill="#fdb462" stroke="black" cx="1219" cy="-66.8" rx="68.9" ry="18"/>
<text text-anchor="middle" x="1219" y="-62.6" font-family="Times,serif" font-size="14.00">LibraryService</text>
</g>
<!-- LibraryService&#45;&gt;HomeModule -->
<g id="edge11" class="edge">
<title>LibraryService&#45;&gt;HomeModule</title>
<path fill="none" stroke="black" d="M1219,-85.07C1219,-103.36 1219,-128.8 1219,-128.8 1219,-128.8 879.1,-128.8 879.1,-128.8"/>
<polygon fill="black" stroke="black" points="879.1,-125.3 869.1,-128.8 879.1,-132.3 879.1,-125.3"/>
</g>
</g>
</svg>
