<?xml version="1.0" encoding="UTF-8" standalone="no"?>
<!DOCTYPE svg PUBLIC "-//W3C//DTD SVG 1.1//EN"
 "http://www.w3.org/Graphics/SVG/1.1/DTD/svg11.dtd">
<!-- Generated by graphviz version 2.47.3 (20210619.1520)
 -->
<!-- Title: dependencies Pages: 1 -->
<svg width="1016pt" height="247pt"
 viewBox="0.00 0.00 1016.00 246.80" xmlns="http://www.w3.org/2000/svg" xmlns:xlink="http://www.w3.org/1999/xlink">
<g id="graph0" class="graph" transform="scale(1 1) rotate(0) translate(4 242.8)">
<title>dependencies</title>
<polygon fill="white" stroke="transparent" points="-4,4 -4,-242.8 1012,-242.8 1012,4 -4,4"/>
<text text-anchor="middle" x="504" y="-8.2" font-family="sans-serif" font-size="14.00">dependencies</text>
<g id="clust1" class="cluster">
<title>cluster_AppModule</title>
<polygon fill="none" stroke="black" stroke-dasharray="1,5" points="8,-32.8 8,-230.8 1000,-230.8 1000,-32.8 8,-32.8"/>
</g>
<g id="clust2" class="cluster">
<title>cluster_AppModule_declarations</title>
<polygon fill="none" stroke="black" points="592,-40.8 592,-92.8 992,-92.8 992,-40.8 592,-40.8"/>
</g>
<g id="clust9" class="cluster">
<title>cluster_AppModule_providers</title>
<polygon fill="none" stroke="black" points="280,-40.8 280,-92.8 584,-92.8 584,-40.8 280,-40.8"/>
</g>
<g id="clust6" class="cluster">
<title>cluster_AppModule_imports</title>
<polygon fill="none" stroke="black" points="16,-40.8 16,-92.8 272,-92.8 272,-40.8 16,-40.8"/>
</g>
<g id="clust8" class="cluster">
<title>cluster_AppModule_bootstrap</title>
<polygon fill="none" stroke="black" points="451,-170.8 451,-222.8 575,-222.8 575,-170.8 451,-170.8"/>
</g>
<!-- AppComponent -->
<g id="node1" class="node">
<title>AppComponent</title>
<polygon fill="#ffffb3" stroke="black" points="983.94,-84.8 878.06,-84.8 878.06,-48.8 983.94,-48.8 983.94,-84.8"/>
<text text-anchor="middle" x="931" y="-62.6" font-family="Times,serif" font-size="14.00">AppComponent</text>
</g>
<!-- AppModule -->
<g id="node4" class="node">
<title>AppModule</title>
<polygon fill="#8dd3c7" stroke="black" points="554.66,-149.8 551.66,-153.8 530.66,-153.8 527.66,-149.8 471.34,-149.8 471.34,-113.8 554.66,-113.8 554.66,-149.8"/>
<text text-anchor="middle" x="513" y="-127.6" font-family="Times,serif" font-size="14.00">AppModule</text>
</g>
<!-- AppComponent&#45;&gt;AppModule -->
<g id="edge1" class="edge">
<title>AppComponent&#45;&gt;AppModule</title>
<path fill="none" stroke="black" d="M931,-85.09C931,-107.01 931,-140.8 931,-140.8 931,-140.8 564.99,-140.8 564.99,-140.8"/>
<polygon fill="black" stroke="black" points="564.99,-137.3 554.99,-140.8 564.99,-144.3 564.99,-137.3"/>
</g>
<!-- LoginComponent -->
<g id="node2" class="node">
<title>LoginComponent</title>
<polygon fill="#ffffb3" stroke="black" points="860.28,-84.8 745.72,-84.8 745.72,-48.8 860.28,-48.8 860.28,-84.8"/>
<text text-anchor="middle" x="803" y="-62.6" font-family="Times,serif" font-size="14.00">LoginComponent</text>
</g>
<!-- LoginComponent&#45;&gt;AppModule -->
<g id="edge2" class="edge">
<title>LoginComponent&#45;&gt;AppModule</title>
<path fill="none" stroke="black" d="M803,-84.91C803,-104.14 803,-131.8 803,-131.8 803,-131.8 564.86,-131.8 564.86,-131.8"/>
<polygon fill="black" stroke="black" points="564.86,-128.3 554.86,-131.8 564.86,-135.3 564.86,-128.3"/>
</g>
<!-- RegisterComponent -->
<g id="node3" class="node">
<title>RegisterComponent</title>
<polygon fill="#ffffb3" stroke="black" points="727.98,-84.8 600.02,-84.8 600.02,-48.8 727.98,-48.8 727.98,-84.8"/>
<text text-anchor="middle" x="664" y="-62.6" font-family="Times,serif" font-size="14.00">RegisterComponent</text>
</g>
<!-- RegisterComponent&#45;&gt;AppModule -->
<g id="edge3" class="edge">
<title>RegisterComponent&#45;&gt;AppModule</title>
<path fill="none" stroke="black" d="M664,-84.83C664,-101.2 664,-122.8 664,-122.8 664,-122.8 564.66,-122.8 564.66,-122.8"/>
<polygon fill="black" stroke="black" points="564.66,-119.3 554.66,-122.8 564.66,-126.3 564.66,-119.3"/>
</g>
<!-- AppComponent  -->
<g id="node7" class="node">
<title>AppComponent </title>
<polygon fill="#80b1d3" stroke="black" points="567.44,-214.8 458.56,-214.8 458.56,-178.8 567.44,-178.8 567.44,-214.8"/>
<text text-anchor="middle" x="513" y="-192.6" font-family="Times,serif" font-size="14.00">AppComponent </text>
</g>
<!-- AppModule&#45;&gt;AppComponent  -->
<g id="edge6" class="edge">
<title>AppModule&#45;&gt;AppComponent </title>
<path fill="none" stroke="black" stroke-dasharray="1,5" d="M513,-149.91C513,-149.91 513,-168.79 513,-168.79"/>
<polygon fill="black" stroke="black" points="509.5,-168.79 513,-178.79 516.5,-168.79 509.5,-168.79"/>
</g>
<!-- AppRoutingModule -->
<g id="node5" class="node">
<title>AppRoutingModule</title>
<polygon fill="#8dd3c7" stroke="black" points="264.27,-84.8 261.27,-88.8 240.27,-88.8 237.27,-84.8 135.73,-84.8 135.73,-48.8 264.27,-48.8 264.27,-84.8"/>
<text text-anchor="middle" x="200" y="-62.6" font-family="Times,serif" font-size="14.00">AppRoutingModule</text>
</g>
<!-- AppRoutingModule&#45;&gt;AppModule -->
<g id="edge4" class="edge">
<title>AppRoutingModule&#45;&gt;AppModule</title>
<path fill="none" stroke="black" d="M200,-84.91C200,-104.14 200,-131.8 200,-131.8 200,-131.8 461.11,-131.8 461.11,-131.8"/>
<polygon fill="black" stroke="black" points="461.11,-135.3 471.11,-131.8 461.11,-128.3 461.11,-135.3"/>
</g>
<!-- HomeModule -->
<g id="node6" class="node">
<title>HomeModule</title>
<polygon fill="#8dd3c7" stroke="black" points="117.76,-84.8 114.76,-88.8 93.76,-88.8 90.76,-84.8 24.24,-84.8 24.24,-48.8 117.76,-48.8 117.76,-84.8"/>
<text text-anchor="middle" x="71" y="-62.6" font-family="Times,serif" font-size="14.00">HomeModule</text>
</g>
<!-- HomeModule&#45;&gt;AppModule -->
<g id="edge5" class="edge">
<title>HomeModule&#45;&gt;AppModule</title>
<path fill="none" stroke="black" d="M71,-85.09C71,-107.01 71,-140.8 71,-140.8 71,-140.8 461.02,-140.8 461.02,-140.8"/>
<polygon fill="black" stroke="black" points="461.02,-144.3 471.02,-140.8 461.02,-137.3 461.02,-144.3"/>
</g>
<!-- LoginService -->
<g id="node8" class="node">
<title>LoginService</title>
<ellipse fill="#fdb462" stroke="black" cx="513" cy="-66.8" rx="63.12" ry="18"/>
<text text-anchor="middle" x="513" y="-62.6" font-family="Times,serif" font-size="14.00">LoginService</text>
</g>
<!-- LoginService&#45;&gt;AppModule -->
<g id="edge7" class="edge">
<title>LoginService&#45;&gt;AppModule</title>
<path fill="none" stroke="black" d="M513,-84.91C513,-84.91 513,-103.79 513,-103.79"/>
<polygon fill="black" stroke="black" points="509.5,-103.79 513,-113.79 516.5,-103.79 509.5,-103.79"/>
</g>
<!-- RegisterService -->
<g id="node9" class="node">
<title>RegisterService</title>
<ellipse fill="#fdb462" stroke="black" cx="360" cy="-66.8" rx="72.34" ry="18"/>
<text text-anchor="middle" x="360" y="-62.6" font-family="Times,serif" font-size="14.00">RegisterService</text>
</g>
<!-- RegisterService&#45;&gt;AppModule -->
<g id="edge8" class="edge">
<title>RegisterService&#45;&gt;AppModule</title>
<path fill="none" stroke="black" d="M360,-84.83C360,-101.2 360,-122.8 360,-122.8 360,-122.8 461.19,-122.8 461.19,-122.8"/>
<polygon fill="black" stroke="black" points="461.19,-126.3 471.19,-122.8 461.19,-119.3 461.19,-126.3"/>
</g>
</g>
</svg>
