<?xml version="1.0" encoding="UTF-8" standalone="no"?>
<!DOCTYPE svg PUBLIC "-//W3C//DTD SVG 1.1//EN"
 "http://www.w3.org/Graphics/SVG/1.1/DTD/svg11.dtd">
<!-- Generated by graphviz version 2.47.3 (20210619.1520)
 -->
<!-- Title: dependencies Pages: 1 -->
<svg width="388pt" height="174pt"
 viewBox="0.00 0.00 388.00 173.80" xmlns="http://www.w3.org/2000/svg" xmlns:xlink="http://www.w3.org/1999/xlink">
<g id="graph0" class="graph" transform="scale(1 1) rotate(0) translate(4 169.8)">
<title>dependencies</title>
<polygon fill="white" stroke="transparent" points="-4,4 -4,-169.8 384,-169.8 384,4 -4,4"/>
<text text-anchor="middle" x="190" y="-8.2" font-family="sans-serif" font-size="14.00">dependencies</text>
<g id="clust1" class="cluster">
<title>cluster_RepositoryModule</title>
<polygon fill="none" stroke="black" stroke-dasharray="1,5" points="8,-32.8 8,-157.8 372,-157.8 372,-32.8 8,-32.8"/>
</g>
<g id="clust2" class="cluster">
<title>cluster_RepositoryModule_declarations</title>
<polygon fill="none" stroke="black" points="206,-40.8 206,-92.8 364,-92.8 364,-40.8 206,-40.8"/>
</g>
<g id="clust4" class="cluster">
<title>cluster_RepositoryModule_imports</title>
<polygon fill="none" stroke="black" points="16,-40.8 16,-92.8 198,-92.8 198,-40.8 16,-40.8"/>
</g>
<!-- RepositoryComponent -->
<g id="node1" class="node">
<title>RepositoryComponent</title>
<polygon fill="#ffffb3" stroke="black" points="356.27,-84.8 213.73,-84.8 213.73,-48.8 356.27,-48.8 356.27,-84.8"/>
<text text-anchor="middle" x="285" y="-62.6" font-family="Times,serif" font-size="14.00">RepositoryComponent</text>
</g>
<!-- RepositoryModule -->
<g id="node2" class="node">
<title>RepositoryModule</title>
<polygon fill="#8dd3c7" stroke="black" points="256.49,-149.8 253.49,-153.8 232.49,-153.8 229.49,-149.8 135.51,-149.8 135.51,-113.8 256.49,-113.8 256.49,-149.8"/>
<text text-anchor="middle" x="196" y="-127.6" font-family="Times,serif" font-size="14.00">RepositoryModule</text>
</g>
<!-- RepositoryComponent&#45;&gt;RepositoryModule -->
<g id="edge1" class="edge">
<title>RepositoryComponent&#45;&gt;RepositoryModule</title>
<path fill="none" stroke="black" d="M235.05,-84.91C235.05,-84.91 235.05,-103.79 235.05,-103.79"/>
<polygon fill="black" stroke="black" points="231.55,-103.79 235.05,-113.79 238.55,-103.79 231.55,-103.79"/>
</g>
<!-- RepositoryRoutingModule -->
<g id="node3" class="node">
<title>RepositoryRoutingModule</title>
<polygon fill="#8dd3c7" stroke="black" points="190.11,-84.8 187.11,-88.8 166.11,-88.8 163.11,-84.8 23.89,-84.8 23.89,-48.8 190.11,-48.8 190.11,-84.8"/>
<text text-anchor="middle" x="107" y="-62.6" font-family="Times,serif" font-size="14.00">RepositoryRoutingModule</text>
</g>
<!-- RepositoryRoutingModule&#45;&gt;RepositoryModule -->
<g id="edge2" class="edge">
<title>RepositoryRoutingModule&#45;&gt;RepositoryModule</title>
<path fill="none" stroke="black" d="M162.78,-84.91C162.78,-84.91 162.78,-103.79 162.78,-103.79"/>
<polygon fill="black" stroke="black" points="159.28,-103.79 162.78,-113.79 166.28,-103.79 159.28,-103.79"/>
</g>
</g>
</svg>
